<?xml version="1.0" encoding="UTF-8" standalone="no"?>
<!DOCTYPE svg PUBLIC "-//W3C//DTD SVG 1.1//EN" "http://www.w3.org/Graphics/SVG/1.1/DTD/svg11.dtd">
<svg width="100%" height="100%" viewBox="0 0 2800 1080" version="1.1" xmlns="http://www.w3.org/2000/svg" xmlns:xlink="http://www.w3.org/1999/xlink" xml:space="preserve" xmlns:serif="http://www.serif.com/" style="fill-rule:evenodd;clip-rule:evenodd;stroke-linejoin:round;stroke-miterlimit:2;">
    <g id="Artboard1" transform="matrix(2.59259,0,0,0.999727,0,5.68279e-14)">
        <rect x="0" y="-0" width="1080" height="1080.3" style="fill:none;"/>
        <clipPath id="_clip1">
            <rect x="0" y="-0" width="1080" height="1080.3"/>
        </clipPath>
        <g clip-path="url(#_clip1)">
            <g id="Light" transform="matrix(-0.385714,-1.22498e-16,4.76411e-17,-1.00884,416.402,1080.85)">
                <rect x="0" y="0" width="1080" height="1070.83" style="fill:url(#_Radial2);"/>
            </g>
            <g id="Lines" transform="matrix(2.36182e-17,-1.00027,0.385714,6.1249e-17,-0.169876,1080.85)">
                <g opacity="0.5">
                    <g transform="matrix(1.84214,0,-4.93038e-32,1.84214,-455.052,-454.758)">
                        <path d="M833.297,538.994L542.701,538.994L834.064,247.631C833.866,247.83 833.609,247.935 833.349,247.948L833.297,247.949C833.019,247.949 832.741,247.843 832.529,247.631C832.118,247.22 832.105,246.562 832.491,246.136L832.529,246.096L541.166,537.459C541.166,537.459 541.166,246.863 541.166,246.863C541.166,246.282 540.71,245.808 540.136,245.779L540.08,245.778C539.48,245.778 538.994,246.264 538.994,246.863L538.994,537.459L247.631,246.096C247.207,245.672 246.519,245.672 246.096,246.096C245.672,246.519 245.672,247.207 246.096,247.631L537.459,538.994L247.023,538.994C246.424,538.994 245.938,539.481 245.938,540.08C245.938,540.679 246.424,541.166 247.023,541.166L537.459,541.166L246.255,832.369C245.832,832.793 245.832,833.48 246.255,833.904C246.467,834.116 246.745,834.222 247.023,834.222L247.075,834.221C247.335,834.209 247.592,834.103 247.791,833.904L538.994,542.701L538.994,833.137L541.166,833.137L541.166,542.701L832.529,834.064L834.064,832.529C834.064,832.529 567.557,566.021 542.701,541.166C542.701,541.166 833.297,541.166 833.297,541.166L833.297,538.994Z" style="fill:url(#_Radial3);"/>
                    </g>
                    <g transform="matrix(1.30259,0.349029,-0.349029,1.30259,24.8673,-352.397)">
                        <path d="M539.781,124.368L539.709,124.385C539.07,124.549 538.597,125.13 538.597,125.821L538.597,536.499C508.205,506.108 214.413,212.315 214.413,212.315C213.834,211.737 212.894,211.737 212.315,212.315C211.737,212.894 211.737,213.834 212.315,214.413L536.499,538.597L125.623,538.597C124.805,538.597 124.14,539.261 124.14,540.08C124.14,540.899 124.805,541.563 125.623,541.563L536.499,541.563L211.981,866.081C211.402,866.66 211.402,867.599 211.981,868.179C212.361,868.559 212.896,868.689 213.383,868.571L213.452,868.552C213.682,868.484 213.898,868.36 214.079,868.179L538.597,543.66L538.597,954.937C538.597,955.756 539.261,956.42 540.08,956.42C540.208,956.42 540.332,956.404 540.451,956.373L540.521,956.353C541.125,956.166 541.563,955.602 541.563,954.937L541.563,543.66L866.219,868.316L868.316,866.219L543.66,541.563L954.739,541.563L954.739,538.597L543.66,538.597L868.16,214.097L866.063,212L541.563,536.499C541.563,536.499 541.563,125.821 541.563,125.821C541.563,125.002 540.899,124.338 540.08,124.338C539.978,124.338 539.878,124.348 539.781,124.368Z" style="fill:url(#_Radial4);"/>
                    </g>
                    <g transform="matrix(1.16787,0.674271,-0.674271,1.16787,273.269,-455.339)">
                        <path d="M538.597,78.073L538.597,536.499C509.971,507.873 248.228,246.13 248.228,246.13C247.649,245.551 246.709,245.551 246.13,246.13C245.551,246.709 245.551,247.649 246.13,248.228L536.499,538.597L77.827,538.597C77.008,538.597 76.344,539.261 76.344,540.08C76.344,540.899 77.008,541.563 77.827,541.563L536.499,541.563L245.815,832.248C245.235,832.827 245.235,833.766 245.815,834.345C246.303,834.834 247.048,834.91 247.617,834.574L247.679,834.535C247.762,834.481 247.84,834.418 247.912,834.345L538.597,543.66L538.597,1002.83L541.563,1002.83L541.563,543.66L832.404,834.501L834.501,832.404L543.66,541.563L1002.59,541.563L1002.59,538.597L543.66,538.597L834.345,247.912L832.248,245.815L541.563,536.499L541.563,78.073C541.563,78.584 541.304,79.036 540.909,79.302L540.849,79.341C540.625,79.477 540.362,79.556 540.08,79.556C539.261,79.556 538.597,78.892 538.597,78.073Z" style="fill:url(#_Radial5);"/>
                    </g>
                </g>
            </g>
            <g transform="matrix(2.27747e-17,-0.964549,0.430342,6.83357e-17,3.5159,2190.48)">
                <g id="Bottom" transform="matrix(1.00741,-5.40491e-17,6.25191e-17,-1.31168,1167.42,953.589)">
                    <g transform="matrix(0.557706,0,0,0.557859,237.836,161.532)">
                        <g opacity="0.5">
                            <g transform="matrix(0.0203686,0.939509,1.77163,1.08481e-16,-267.03,-183.135)">
                                <path d="M403.874,725.127C391.811,724.756 380.861,722.715 371.025,719.003C361.189,715.291 352.374,710.28 344.579,703.971C336.785,697.661 330.057,690.33 324.397,681.979C318.736,673.627 314.004,664.673 310.2,655.115C306.395,645.558 303.565,635.722 301.709,625.607C299.853,615.493 298.925,605.518 298.925,595.682L298.925,548.636C298.925,521.912 292.569,502.518 279.856,490.455C267.144,478.392 228.987,462.237 228.987,452.91C228.987,443.583 267.144,425.732 279.856,413.762C292.569,401.792 298.925,382.352 298.925,355.442L298.925,308.118C298.925,298.282 299.76,288.307 301.431,278.192C303.101,268.078 305.699,258.242 309.225,248.684C312.751,239.127 317.252,230.172 322.727,221.821C328.201,213.47 334.836,206.139 342.631,199.829C350.425,193.519 359.38,188.509 369.494,184.797C379.608,181.085 391.068,179.044 403.874,178.673L409.719,210.686C396.357,211.057 385.733,214.212 377.845,220.151C369.958,226.09 364.019,233.652 360.029,242.839C356.039,252.025 353.487,262.371 352.374,273.878C351.26,285.384 350.703,296.797 350.703,308.118L350.703,355.442C350.518,377.712 345.322,397.245 335.114,414.041C324.907,430.836 309.04,443.595 287.512,452.317C309.04,460.854 324.907,473.521 335.114,490.316C345.322,507.111 350.518,526.551 350.703,548.636L350.703,595.682C350.703,607.188 351.631,618.648 353.487,630.061C355.343,641.475 358.544,651.775 363.091,660.961C367.638,670.148 373.67,677.71 381.186,683.649C388.702,689.588 398.213,692.743 409.719,693.114L403.874,725.127Z" style="fill:rgb(255,152,0);fill-rule:nonzero;"/>
                            </g>
                            <g transform="matrix(0.0203686,0.939509,1.77163,1.08481e-16,-267.03,-183.135)">
                                <path d="M411.289,725.424C410.897,727.574 407.334,729.197 403.282,729.073C389.819,728.658 377.597,726.382 366.619,722.24C356.105,718.272 346.652,712.931 338.321,706.186C330.238,699.644 323.248,692.046 317.379,683.387C311.611,674.876 306.785,665.751 302.908,656.012C299.048,646.315 296.176,636.336 294.293,626.074C292.414,615.831 291.475,605.729 291.475,595.767L291.475,548.722C291.475,522.884 284.514,504.422 273.334,492.44C259.565,477.682 243.238,467.441 232.154,461.526C226.223,458.36 216.871,455.925 217.845,452.841C217.949,448.622 225.293,448.88 236.835,441.881C247.277,435.549 263.63,423.429 273.384,411.88C284.486,395.64 291.475,381.517 291.475,355.528L291.475,308.204C291.475,298.254 292.319,288.164 294.008,277.932C295.702,267.675 298.338,257.7 301.914,248.007C305.512,238.254 310.108,229.117 315.695,220.596C321.392,211.905 328.313,204.28 336.425,197.714C344.808,190.928 354.468,185.554 365.345,181.563C376.611,177.429 389.366,175.14 403.628,174.726C407.558,174.613 410.911,176.136 411.29,178.207L417.136,210.221C417.334,211.306 416.674,212.397 415.312,213.233C413.95,214.069 412.008,214.575 409.948,214.633C399.026,214.936 390.352,217.525 383.905,222.38C376.517,227.943 371.025,235.041 367.288,243.646C363.387,252.628 360.903,262.745 359.815,273.995C358.708,285.433 358.154,296.779 358.154,308.032C358.154,308.032 358.154,355.357 358.154,355.357C358.154,355.362 358.154,355.368 358.154,355.374C357.965,378.104 352.619,398.037 342.201,415.179C332.644,430.905 318.275,443.235 299.27,452.232C318.285,461.062 332.655,473.307 342.21,489.03C352.625,506.167 357.965,525.999 358.154,548.533C358.154,548.539 358.154,548.544 358.154,548.55L358.154,595.596C358.154,606.989 359.073,618.336 360.91,629.637C362.727,640.808 365.85,650.89 370.3,659.881C374.61,668.588 380.275,675.768 387.4,681.398C393.478,686.2 401.027,688.869 410.332,689.169C412.32,689.233 414.159,689.718 415.438,690.515C416.717,691.312 417.328,692.355 417.135,693.41L411.289,725.424ZM397.209,720.715L401.636,696.471C391.187,695.131 382.248,691.65 374.972,685.9C367.064,679.652 360.666,671.707 355.882,662.042C351.238,652.66 347.959,642.142 346.064,630.486C344.19,618.96 343.253,607.387 343.253,595.767L343.253,548.731C343.07,527.099 338.017,508.054 328.018,491.602C318.332,475.664 303.396,463.602 282.968,455.501C281.117,454.767 280.041,453.608 280.061,452.369C280.082,451.13 281.196,449.956 283.071,449.196C303.459,440.935 318.361,428.809 328.028,412.902C338.023,396.455 343.07,377.326 343.253,355.518C343.253,355.518 343.253,308.204 343.253,308.204C343.253,296.816 343.813,285.335 344.933,273.76C346.071,261.998 348.691,251.422 352.77,242.031C357.013,232.263 363.398,224.237 371.785,217.922C379.502,212.112 389.442,208.562 401.593,207.26C401.593,207.26 397.166,183.017 397.166,183.017C388.578,183.762 380.734,185.429 373.642,188.031C364.291,191.463 356.043,196.111 348.836,201.945C341.358,207.998 335.01,215.035 329.758,223.046C324.395,231.227 319.99,240 316.536,249.362C313.06,258.785 310.499,268.481 308.853,278.453C307.202,288.45 306.376,298.31 306.376,308.032C306.376,308.032 306.376,355.357 306.376,355.357C306.376,383.187 297.271,399.411 286.329,415.645C276.946,429.825 267.455,439.321 240.818,452.758C269.432,466.69 278.095,478.483 286.379,488.47C297.321,504.435 306.376,520.94 306.376,548.55C306.376,548.55 306.376,595.596 306.376,595.596C306.376,605.307 307.293,615.155 309.125,625.14C310.954,635.107 313.742,644.8 317.491,654.219C321.223,663.594 325.862,672.379 331.415,680.571C336.866,688.614 343.331,695.678 350.838,701.755C358.095,707.63 366.273,712.31 375.431,715.766C382.11,718.286 389.369,719.937 397.209,720.715L397.209,720.715Z" style="fill:white;"/>
                            </g>
                        </g>
                    </g>
                    <g transform="matrix(0.709754,0,0,0.709948,155.457,115.256)">
                        <g opacity="0.5">
                            <g transform="matrix(0.0203686,0.939509,1.77163,1.08481e-16,-267.03,-183.135)">
                                <path d="M403.874,725.127C391.811,724.756 380.861,722.715 371.025,719.003C361.189,715.291 352.374,710.28 344.579,703.971C336.785,697.661 330.057,690.33 324.397,681.979C318.736,673.627 314.004,664.673 310.2,655.115C306.395,645.558 303.565,635.722 301.709,625.607C299.853,615.493 298.925,605.518 298.925,595.682L298.925,548.636C298.925,521.912 292.569,502.518 279.856,490.455C267.144,478.392 228.987,462.237 228.987,452.91C228.987,443.583 267.144,425.732 279.856,413.762C292.569,401.792 298.925,382.352 298.925,355.442L298.925,308.118C298.925,298.282 299.76,288.307 301.431,278.192C303.101,268.078 305.699,258.242 309.225,248.684C312.751,239.127 317.252,230.172 322.727,221.821C328.201,213.47 334.836,206.139 342.631,199.829C350.425,193.519 359.38,188.509 369.494,184.797C379.608,181.085 391.068,179.044 403.874,178.673L409.719,210.686C396.357,211.057 385.733,214.212 377.845,220.151C369.958,226.09 364.019,233.652 360.029,242.839C356.039,252.025 353.487,262.371 352.374,273.878C351.26,285.384 350.703,296.797 350.703,308.118L350.703,355.442C350.518,377.712 345.322,397.245 335.114,414.041C324.907,430.836 309.04,443.595 287.512,452.317C309.04,460.854 324.907,473.521 335.114,490.316C345.322,507.111 350.518,526.551 350.703,548.636L350.703,595.682C350.703,607.188 351.631,618.648 353.487,630.061C355.343,641.475 358.544,651.775 363.091,660.961C367.638,670.148 373.67,677.71 381.186,683.649C388.702,689.588 398.213,692.743 409.719,693.114L403.874,725.127Z" style="fill:rgb(255,152,0);fill-rule:nonzero;"/>
                            </g>
                            <g transform="matrix(0.0203686,0.939509,1.77163,1.08481e-16,-267.03,-183.135)">
                                <path d="M411.289,725.424C410.897,727.574 407.334,729.197 403.282,729.073C389.819,728.658 377.597,726.382 366.619,722.24C356.105,718.272 346.652,712.931 338.321,706.186C330.238,699.644 323.248,692.046 317.379,683.387C311.611,674.876 306.785,665.751 302.908,656.012C299.048,646.315 296.176,636.336 294.293,626.074C292.414,615.831 291.475,605.729 291.475,595.767L291.475,548.722C291.475,522.884 284.514,504.422 273.334,492.44C259.565,477.682 243.238,467.441 232.154,461.526C226.223,458.36 216.871,455.925 217.845,452.841C217.949,448.622 225.293,448.88 236.835,441.881C247.277,435.549 263.63,423.429 273.384,411.88C284.486,395.64 291.475,381.517 291.475,355.528L291.475,308.204C291.475,298.254 292.319,288.164 294.008,277.932C295.702,267.675 298.338,257.7 301.914,248.007C305.512,238.254 310.108,229.117 315.695,220.596C321.392,211.905 328.313,204.28 336.425,197.714C344.808,190.928 354.468,185.554 365.345,181.563C376.611,177.429 389.366,175.14 403.628,174.726C407.558,174.613 410.911,176.136 411.29,178.207L417.136,210.221C417.334,211.306 416.674,212.397 415.312,213.233C413.95,214.069 412.008,214.575 409.948,214.633C399.026,214.936 390.352,217.525 383.905,222.38C376.517,227.943 371.025,235.041 367.288,243.646C363.387,252.628 360.903,262.745 359.815,273.995C358.708,285.433 358.154,296.779 358.154,308.032C358.154,308.032 358.154,355.357 358.154,355.357C358.154,355.362 358.154,355.368 358.154,355.374C357.965,378.104 352.619,398.037 342.201,415.179C332.644,430.905 318.275,443.235 299.27,452.232C318.285,461.062 332.655,473.307 342.21,489.03C352.625,506.167 357.965,525.999 358.154,548.533C358.154,548.539 358.154,548.544 358.154,548.55L358.154,595.596C358.154,606.989 359.073,618.336 360.91,629.637C362.727,640.808 365.85,650.89 370.3,659.881C374.61,668.588 380.275,675.768 387.4,681.398C393.478,686.2 401.027,688.869 410.332,689.169C412.32,689.233 414.159,689.718 415.438,690.515C416.717,691.312 417.328,692.355 417.135,693.41L411.289,725.424ZM397.209,720.715L401.636,696.471C391.187,695.131 382.248,691.65 374.972,685.9C367.064,679.652 360.666,671.707 355.882,662.042C351.238,652.66 347.959,642.142 346.064,630.486C344.19,618.96 343.253,607.387 343.253,595.767L343.253,548.731C343.07,527.099 338.017,508.054 328.018,491.602C318.332,475.664 303.396,463.602 282.968,455.501C281.117,454.767 280.041,453.608 280.061,452.369C280.082,451.13 281.196,449.956 283.071,449.196C303.459,440.935 318.361,428.809 328.028,412.902C338.023,396.455 343.07,377.326 343.253,355.518C343.253,355.518 343.253,308.204 343.253,308.204C343.253,296.816 343.813,285.335 344.933,273.76C346.071,261.998 348.691,251.422 352.77,242.031C357.013,232.263 363.398,224.237 371.785,217.922C379.502,212.112 389.442,208.562 401.593,207.26C401.593,207.26 397.166,183.017 397.166,183.017C388.578,183.762 380.734,185.429 373.642,188.031C364.291,191.463 356.043,196.111 348.836,201.945C341.358,207.998 335.01,215.035 329.758,223.046C324.395,231.227 319.99,240 316.536,249.362C313.06,258.785 310.499,268.481 308.853,278.453C307.202,288.45 306.376,298.31 306.376,308.032C306.376,308.032 306.376,355.357 306.376,355.357C306.376,383.187 297.271,399.411 286.329,415.645C276.946,429.825 267.455,439.321 240.818,452.758C269.432,466.69 278.095,478.483 286.379,488.47C297.321,504.435 306.376,520.94 306.376,548.55C306.376,548.55 306.376,595.596 306.376,595.596C306.376,605.307 307.293,615.155 309.125,625.14C310.954,635.107 313.742,644.8 317.491,654.219C321.223,663.594 325.862,672.379 331.415,680.571C336.866,688.614 343.331,695.678 350.838,701.755C358.095,707.63 366.273,712.31 375.431,715.766C382.11,718.286 389.369,719.937 397.209,720.715L397.209,720.715Z" style="fill:white;"/>
                            </g>
                        </g>
                    </g>
                    <g transform="matrix(0.861844,0,0,0.862079,73.0549,59.503)">
                        <g opacity="0.75">
                            <g transform="matrix(0.0203686,0.939509,1.77163,1.08481e-16,-267.03,-183.135)">
                                <path d="M403.874,725.127C391.811,724.756 380.861,722.715 371.025,719.003C361.189,715.291 352.374,710.28 344.579,703.971C336.785,697.661 330.057,690.33 324.397,681.979C318.736,673.627 314.004,664.673 310.2,655.115C306.395,645.558 303.565,635.722 301.709,625.607C299.853,615.493 298.925,605.518 298.925,595.682L298.925,548.636C298.925,521.912 292.569,502.518 279.856,490.455C267.144,478.392 247.704,472.268 221.536,472.082L221.536,431.718C247.704,431.718 267.144,425.732 279.856,413.762C292.569,401.792 298.925,382.352 298.925,355.442L298.925,308.118C298.925,298.282 299.76,288.307 301.431,278.192C303.101,268.078 305.699,258.242 309.225,248.684C312.751,239.127 317.252,230.172 322.727,221.821C328.201,213.47 334.836,206.139 342.631,199.829C350.425,193.519 359.38,188.509 369.494,184.797C379.608,181.085 391.068,179.044 403.874,178.673L409.719,210.686C396.357,211.057 385.733,214.212 377.845,220.151C369.958,226.09 364.019,233.652 360.029,242.839C356.039,252.025 353.487,262.371 352.374,273.878C351.26,285.384 350.703,296.797 350.703,308.118L350.703,355.442C350.518,377.712 345.322,397.245 335.114,414.041C324.907,430.836 309.04,443.595 287.512,452.317C309.04,460.854 324.907,473.521 335.114,490.316C345.322,507.111 350.518,526.551 350.703,548.636L350.703,595.682C350.703,607.188 351.631,618.648 353.487,630.061C355.343,641.475 358.544,651.775 363.091,660.961C367.638,670.148 373.67,677.71 381.186,683.649C388.702,689.588 398.213,692.743 409.719,693.114L403.874,725.127Z" style="fill:rgb(255,152,0);fill-rule:nonzero;"/>
                            </g>
                            <g transform="matrix(0.0203686,0.939509,1.77163,1.08481e-16,-267.03,-183.135)">
                                <path d="M411.289,725.424C410.897,727.574 407.334,729.197 403.282,729.073C389.819,728.658 377.597,726.382 366.619,722.24C356.105,718.272 346.652,712.931 338.321,706.186C330.238,699.644 323.248,692.046 317.379,683.387C311.611,674.876 306.785,665.751 302.908,656.012C299.048,646.315 296.176,636.336 294.293,626.074C292.414,615.831 291.475,605.729 291.475,595.767L291.475,548.722C291.475,522.884 285.625,504.103 273.334,492.44C261.985,481.671 244.636,476.2 221.275,476.034C217.265,476.006 214.086,474.296 214.086,472.168L214.086,431.803C214.086,430.74 214.893,429.713 216.325,428.953C217.758,428.194 219.694,427.765 221.698,427.765C244.879,427.765 262.122,422.484 273.384,411.88C285.662,400.319 291.475,381.517 291.475,355.528L291.475,308.204C291.475,298.254 292.319,288.164 294.008,277.932C295.702,267.675 298.338,257.7 301.914,248.007C305.512,238.254 310.108,229.117 315.695,220.596C321.392,211.905 328.313,204.28 336.425,197.714C344.808,190.928 354.468,185.554 365.345,181.563C376.611,177.429 389.366,175.14 403.628,174.726C407.558,174.613 410.911,176.136 411.29,178.207L417.136,210.221C417.334,211.306 416.674,212.397 415.312,213.233C413.95,214.069 412.008,214.575 409.948,214.633C399.026,214.936 390.352,217.525 383.905,222.38C376.517,227.943 371.025,235.041 367.288,243.646C363.387,252.628 360.903,262.745 359.815,273.995C358.708,285.433 358.154,296.779 358.154,308.032C358.154,308.032 358.154,355.357 358.154,355.357C358.154,355.362 358.154,355.368 358.154,355.374C357.965,378.104 352.619,398.037 342.201,415.179C332.644,430.905 318.275,443.235 299.27,452.232C318.285,461.062 332.655,473.307 342.21,489.03C352.625,506.167 357.965,525.999 358.154,548.533C358.154,548.539 358.154,548.544 358.154,548.55L358.154,595.596C358.154,606.989 359.073,618.336 360.91,629.637C362.727,640.808 365.85,650.89 370.3,659.881C374.61,668.588 380.275,675.768 387.4,681.398C393.478,686.2 401.027,688.869 410.332,689.169C412.32,689.233 414.159,689.718 415.438,690.515C416.717,691.312 417.328,692.355 417.135,693.41L411.289,725.424ZM397.209,720.715L401.636,696.471C391.187,695.131 382.248,691.65 374.972,685.9C367.064,679.652 360.666,671.707 355.882,662.042C351.238,652.66 347.959,642.142 346.064,630.486C344.19,618.96 343.253,607.387 343.253,595.767L343.253,548.731C343.07,527.099 338.017,508.054 328.018,491.602C318.332,475.664 303.396,463.602 282.968,455.501C281.117,454.767 280.041,453.608 280.061,452.369C280.082,451.13 281.196,449.956 283.071,449.196C303.459,440.935 318.361,428.809 328.028,412.902C338.023,396.455 343.07,377.326 343.253,355.518C343.253,355.518 343.253,308.204 343.253,308.204C343.253,296.816 343.813,285.335 344.933,273.76C346.071,261.998 348.691,251.422 352.77,242.031C357.013,232.263 363.398,224.237 371.785,217.922C379.502,212.112 389.442,208.562 401.593,207.26C401.593,207.26 397.166,183.017 397.166,183.017C388.578,183.762 380.734,185.429 373.642,188.031C364.291,191.463 356.043,196.111 348.836,201.945C341.358,207.998 335.01,215.035 329.758,223.046C324.395,231.227 319.99,240 316.536,249.362C313.06,258.785 310.499,268.481 308.853,278.453C307.202,288.45 306.376,298.31 306.376,308.032C306.376,308.032 306.376,355.357 306.376,355.357C306.376,383.187 299.476,403.265 286.329,415.645C273.427,427.793 254.324,434.425 228.987,435.51C228.987,435.51 228.987,468.324 228.987,468.324C254.36,469.529 273.493,476.242 286.379,488.47C299.513,500.933 306.376,520.94 306.376,548.55C306.376,548.55 306.376,595.596 306.376,595.596C306.376,605.307 307.293,615.155 309.125,625.14C310.954,635.107 313.742,644.8 317.491,654.219C321.223,663.594 325.862,672.379 331.415,680.571C336.866,688.614 343.331,695.678 350.838,701.755C358.095,707.63 366.273,712.31 375.431,715.766C382.11,718.286 389.369,719.937 397.209,720.715L397.209,720.715Z" style="fill:white;"/>
                            </g>
                        </g>
                    </g>
                    <g transform="matrix(1.06463,0,0,1.06492,-37.8145,-4.16449)">
                        <g transform="matrix(0.0203686,0.939509,1.77163,1.08481e-16,-267.03,-183.135)">
                            <path d="M403.874,725.127C391.811,724.756 380.861,722.715 371.025,719.003C361.189,715.291 352.374,710.28 344.579,703.971C336.785,697.661 330.057,690.33 324.397,681.979C318.736,673.627 314.004,664.673 310.2,655.115C306.395,645.558 303.565,635.722 301.709,625.607C299.853,615.493 298.925,605.518 298.925,595.682L298.925,548.636C298.925,521.912 292.569,502.518 279.856,490.455C267.144,478.392 247.704,472.268 221.536,472.082L221.536,431.718C247.704,431.718 267.144,425.732 279.856,413.762C292.569,401.792 298.925,382.352 298.925,355.442L298.925,308.118C298.925,298.282 299.76,288.307 301.431,278.192C303.101,268.078 305.699,258.242 309.225,248.684C312.751,239.127 317.252,230.172 322.727,221.821C328.201,213.47 334.836,206.139 342.631,199.829C350.425,193.519 359.38,188.509 369.494,184.797C379.608,181.085 391.068,179.044 403.874,178.673L409.719,210.686C396.357,211.057 385.733,214.212 377.845,220.151C369.958,226.09 364.019,233.652 360.029,242.839C356.039,252.025 353.487,262.371 352.374,273.878C351.26,285.384 350.703,296.797 350.703,308.118L350.703,355.442C350.518,377.712 345.322,397.245 335.114,414.041C324.907,430.836 309.04,443.595 287.512,452.317C309.04,460.854 324.907,473.521 335.114,490.316C345.322,507.111 350.518,526.551 350.703,548.636L350.703,595.682C350.703,607.188 351.631,618.648 353.487,630.061C355.343,641.475 358.544,651.775 363.091,660.961C367.638,670.148 373.67,677.71 381.186,683.649C388.702,689.588 398.213,692.743 409.719,693.114L403.874,725.127Z" style="fill:rgb(255,152,0);fill-rule:nonzero;"/>
                        </g>
                        <g transform="matrix(0.0203686,0.939509,1.77163,1.08481e-16,-267.03,-183.135)">
                            <path d="M411.289,725.424C410.897,727.574 407.334,729.197 403.282,729.073C389.819,728.658 377.597,726.382 366.619,722.24C356.105,718.272 346.652,712.931 338.321,706.186C330.238,699.644 323.248,692.046 317.379,683.387C311.611,674.876 306.785,665.751 302.908,656.012C299.048,646.315 296.176,636.336 294.293,626.074C292.414,615.831 291.475,605.729 291.475,595.767L291.475,548.722C291.475,522.884 285.625,504.103 273.334,492.44C261.985,481.671 244.636,476.2 221.275,476.034C217.265,476.006 214.086,474.296 214.086,472.168L214.086,431.803C214.086,430.74 214.893,429.713 216.325,428.953C217.758,428.194 219.694,427.765 221.698,427.765C244.879,427.765 262.122,422.484 273.384,411.88C285.662,400.319 291.475,381.517 291.475,355.528L291.475,308.204C291.475,298.254 292.319,288.164 294.008,277.932C295.702,267.675 298.338,257.7 301.914,248.007C305.512,238.254 310.108,229.117 315.695,220.596C321.392,211.905 328.313,204.28 336.425,197.714C344.808,190.928 354.468,185.554 365.345,181.563C376.611,177.429 389.366,175.14 403.628,174.726C407.558,174.613 410.911,176.136 411.29,178.207L417.136,210.221C417.334,211.306 416.674,212.397 415.312,213.233C413.95,214.069 412.008,214.575 409.948,214.633C399.026,214.936 390.352,217.525 383.905,222.38C376.517,227.943 371.025,235.041 367.288,243.646C363.387,252.628 360.903,262.745 359.815,273.995C358.708,285.433 358.154,296.779 358.154,308.032C358.154,308.032 358.154,355.357 358.154,355.357C358.154,355.362 358.154,355.368 358.154,355.374C357.965,378.104 352.619,398.037 342.201,415.179C332.644,430.905 318.275,443.235 299.27,452.232C318.285,461.062 332.655,473.307 342.21,489.03C352.625,506.167 357.965,525.999 358.154,548.533C358.154,548.539 358.154,548.544 358.154,548.55L358.154,595.596C358.154,606.989 359.073,618.336 360.91,629.637C362.727,640.808 365.85,650.89 370.3,659.881C374.61,668.588 380.275,675.768 387.4,681.398C393.478,686.2 401.027,688.869 410.332,689.169C412.32,689.233 414.159,689.718 415.438,690.515C416.717,691.312 417.328,692.355 417.135,693.41L411.289,725.424ZM397.209,720.715L401.636,696.471C391.187,695.131 382.248,691.65 374.972,685.9C367.064,679.652 360.666,671.707 355.882,662.042C351.238,652.66 347.959,642.142 346.064,630.486C344.19,618.96 343.253,607.387 343.253,595.767L343.253,548.731C343.07,527.099 338.017,508.054 328.018,491.602C318.332,475.664 303.396,463.602 282.968,455.501C281.117,454.767 280.041,453.608 280.061,452.369C280.082,451.13 281.196,449.956 283.071,449.196C303.459,440.935 318.361,428.809 328.028,412.902C338.023,396.455 343.07,377.326 343.253,355.518C343.253,355.518 343.253,308.204 343.253,308.204C343.253,296.816 343.813,285.335 344.933,273.76C346.071,261.998 348.691,251.422 352.77,242.031C357.013,232.263 363.398,224.237 371.785,217.922C379.502,212.112 389.442,208.562 401.593,207.26C401.593,207.26 397.166,183.017 397.166,183.017C388.578,183.762 380.734,185.429 373.642,188.031C364.291,191.463 356.043,196.111 348.836,201.945C341.358,207.998 335.01,215.035 329.758,223.046C324.395,231.227 319.99,240 316.536,249.362C313.06,258.785 310.499,268.481 308.853,278.453C307.202,288.45 306.376,298.31 306.376,308.032C306.376,308.032 306.376,355.357 306.376,355.357C306.376,383.187 299.476,403.265 286.329,415.645C273.427,427.793 254.324,434.425 228.987,435.51C228.987,435.51 228.987,468.324 228.987,468.324C254.36,469.529 273.493,476.242 286.379,488.47C299.513,500.933 306.376,520.94 306.376,548.55C306.376,548.55 306.376,595.596 306.376,595.596C306.376,605.307 307.293,615.155 309.125,625.14C310.954,635.107 313.742,644.8 317.491,654.219C321.223,663.594 325.862,672.379 331.415,680.571C336.866,688.614 343.331,695.678 350.838,701.755C358.095,707.63 366.273,712.31 375.431,715.766C382.11,718.286 389.369,719.937 397.209,720.715L397.209,720.715Z" style="fill:white;"/>
                        </g>
                    </g>
                </g>
                <g id="Top" transform="matrix(1.00318,0,0,1.3821,1171.61,-10.945)">
                    <g transform="matrix(0.557706,0,0,0.557859,237.836,161.532)">
                        <g opacity="0.5">
                            <g transform="matrix(0.0203686,0.939509,1.77163,1.08481e-16,-267.03,-183.135)">
                                <path d="M403.874,725.127C391.811,724.756 380.861,722.715 371.025,719.003C361.189,715.291 352.374,710.28 344.579,703.971C336.785,697.661 330.057,690.33 324.397,681.979C318.736,673.627 314.004,664.673 310.2,655.115C306.395,645.558 303.565,635.722 301.709,625.607C299.853,615.493 298.925,605.518 298.925,595.682L298.925,548.636C298.925,521.912 292.569,502.518 279.856,490.455C267.144,478.392 228.987,462.237 228.987,452.91C228.987,443.583 267.144,425.732 279.856,413.762C292.569,401.792 298.925,382.352 298.925,355.442L298.925,308.118C298.925,298.282 299.76,288.307 301.431,278.192C303.101,268.078 305.699,258.242 309.225,248.684C312.751,239.127 317.252,230.172 322.727,221.821C328.201,213.47 334.836,206.139 342.631,199.829C350.425,193.519 359.38,188.509 369.494,184.797C379.608,181.085 391.068,179.044 403.874,178.673L409.719,210.686C396.357,211.057 385.733,214.212 377.845,220.151C369.958,226.09 364.019,233.652 360.029,242.839C356.039,252.025 353.487,262.371 352.374,273.878C351.26,285.384 350.703,296.797 350.703,308.118L350.703,355.442C350.518,377.712 345.322,397.245 335.114,414.041C324.907,430.836 309.04,443.595 287.512,452.317C309.04,460.854 324.907,473.521 335.114,490.316C345.322,507.111 350.518,526.551 350.703,548.636L350.703,595.682C350.703,607.188 351.631,618.648 353.487,630.061C355.343,641.475 358.544,651.775 363.091,660.961C367.638,670.148 373.67,677.71 381.186,683.649C388.702,689.588 398.213,692.743 409.719,693.114L403.874,725.127Z" style="fill:rgb(0,179,31);fill-rule:nonzero;"/>
                            </g>
                            <g transform="matrix(0.0203686,0.939509,1.77163,1.08481e-16,-267.03,-183.135)">
                                <path d="M411.289,725.424C410.897,727.574 407.334,729.197 403.282,729.073C389.819,728.658 377.597,726.382 366.619,722.24C356.105,718.272 346.652,712.931 338.321,706.186C330.238,699.644 323.248,692.046 317.379,683.387C311.611,674.876 306.785,665.751 302.908,656.012C299.048,646.315 296.176,636.336 294.293,626.074C292.414,615.831 291.475,605.729 291.475,595.767L291.475,548.722C291.475,522.884 284.514,504.422 273.334,492.44C259.565,477.682 243.238,467.441 232.154,461.526C226.223,458.36 216.871,455.925 217.845,452.841C217.949,448.622 225.293,448.88 236.835,441.881C247.277,435.549 263.63,423.429 273.384,411.88C284.486,395.64 291.475,381.517 291.475,355.528L291.475,308.204C291.475,298.254 292.319,288.164 294.008,277.932C295.702,267.675 298.338,257.7 301.914,248.007C305.512,238.254 310.108,229.117 315.695,220.596C321.392,211.905 328.313,204.28 336.425,197.714C344.808,190.928 354.468,185.554 365.345,181.563C376.611,177.429 389.366,175.14 403.628,174.726C407.558,174.613 410.911,176.136 411.29,178.207L417.136,210.221C417.334,211.306 416.674,212.397 415.312,213.233C413.95,214.069 412.008,214.575 409.948,214.633C399.026,214.936 390.352,217.525 383.905,222.38C376.517,227.943 371.025,235.041 367.288,243.646C363.387,252.628 360.903,262.745 359.815,273.995C358.708,285.433 358.154,296.779 358.154,308.032C358.154,308.032 358.154,355.357 358.154,355.357C358.154,355.362 358.154,355.368 358.154,355.374C357.965,378.104 352.619,398.037 342.201,415.179C332.644,430.905 318.275,443.235 299.27,452.232C318.285,461.062 332.655,473.307 342.21,489.03C352.625,506.167 357.965,525.999 358.154,548.533C358.154,548.539 358.154,548.544 358.154,548.55L358.154,595.596C358.154,606.989 359.073,618.336 360.91,629.637C362.727,640.808 365.85,650.89 370.3,659.881C374.61,668.588 380.275,675.768 387.4,681.398C393.478,686.2 401.027,688.869 410.332,689.169C412.32,689.233 414.159,689.718 415.438,690.515C416.717,691.312 417.328,692.355 417.135,693.41L411.289,725.424ZM397.209,720.715L401.636,696.471C391.187,695.131 382.248,691.65 374.972,685.9C367.064,679.652 360.666,671.707 355.882,662.042C351.238,652.66 347.959,642.142 346.064,630.486C344.19,618.96 343.253,607.387 343.253,595.767L343.253,548.731C343.07,527.099 338.017,508.054 328.018,491.602C318.332,475.664 303.396,463.602 282.968,455.501C281.117,454.767 280.041,453.608 280.061,452.369C280.082,451.13 281.196,449.956 283.071,449.196C303.459,440.935 318.361,428.809 328.028,412.902C338.023,396.455 343.07,377.326 343.253,355.518C343.253,355.518 343.253,308.204 343.253,308.204C343.253,296.816 343.813,285.335 344.933,273.76C346.071,261.998 348.691,251.422 352.77,242.031C357.013,232.263 363.398,224.237 371.785,217.922C379.502,212.112 389.442,208.562 401.593,207.26C401.593,207.26 397.166,183.017 397.166,183.017C388.578,183.762 380.734,185.429 373.642,188.031C364.291,191.463 356.043,196.111 348.836,201.945C341.358,207.998 335.01,215.035 329.758,223.046C324.395,231.227 319.99,240 316.536,249.362C313.06,258.785 310.499,268.481 308.853,278.453C307.202,288.45 306.376,298.31 306.376,308.032C306.376,308.032 306.376,355.357 306.376,355.357C306.376,383.187 297.271,399.411 286.329,415.645C276.946,429.825 267.455,439.321 240.818,452.758C269.432,466.69 278.095,478.483 286.379,488.47C297.321,504.435 306.376,520.94 306.376,548.55C306.376,548.55 306.376,595.596 306.376,595.596C306.376,605.307 307.293,615.155 309.125,625.14C310.954,635.107 313.742,644.8 317.491,654.219C321.223,663.594 325.862,672.379 331.415,680.571C336.866,688.614 343.331,695.678 350.838,701.755C358.095,707.63 366.273,712.31 375.431,715.766C382.11,718.286 389.369,719.937 397.209,720.715L397.209,720.715Z" style="fill:white;"/>
                            </g>
                        </g>
                    </g>
                    <g transform="matrix(0.709754,0,0,0.709948,155.457,115.256)">
                        <g opacity="0.5">
                            <g transform="matrix(0.0203686,0.939509,1.77163,1.08481e-16,-267.03,-183.135)">
                                <path d="M403.874,725.127C391.811,724.756 380.861,722.715 371.025,719.003C361.189,715.291 352.374,710.28 344.579,703.971C336.785,697.661 330.057,690.33 324.397,681.979C318.736,673.627 314.004,664.673 310.2,655.115C306.395,645.558 303.565,635.722 301.709,625.607C299.853,615.493 298.925,605.518 298.925,595.682L298.925,548.636C298.925,521.912 292.569,502.518 279.856,490.455C267.144,478.392 228.987,462.237 228.987,452.91C228.987,443.583 267.144,425.732 279.856,413.762C292.569,401.792 298.925,382.352 298.925,355.442L298.925,308.118C298.925,298.282 299.76,288.307 301.431,278.192C303.101,268.078 305.699,258.242 309.225,248.684C312.751,239.127 317.252,230.172 322.727,221.821C328.201,213.47 334.836,206.139 342.631,199.829C350.425,193.519 359.38,188.509 369.494,184.797C379.608,181.085 391.068,179.044 403.874,178.673L409.719,210.686C396.357,211.057 385.733,214.212 377.845,220.151C369.958,226.09 364.019,233.652 360.029,242.839C356.039,252.025 353.487,262.371 352.374,273.878C351.26,285.384 350.703,296.797 350.703,308.118L350.703,355.442C350.518,377.712 345.322,397.245 335.114,414.041C324.907,430.836 309.04,443.595 287.512,452.317C309.04,460.854 324.907,473.521 335.114,490.316C345.322,507.111 350.518,526.551 350.703,548.636L350.703,595.682C350.703,607.188 351.631,618.648 353.487,630.061C355.343,641.475 358.544,651.775 363.091,660.961C367.638,670.148 373.67,677.71 381.186,683.649C388.702,689.588 398.213,692.743 409.719,693.114L403.874,725.127Z" style="fill:rgb(0,179,31);fill-rule:nonzero;"/>
                            </g>
                            <g transform="matrix(0.0203686,0.939509,1.77163,1.08481e-16,-267.03,-183.135)">
                                <path d="M411.289,725.424C410.897,727.574 407.334,729.197 403.282,729.073C389.819,728.658 377.597,726.382 366.619,722.24C356.105,718.272 346.652,712.931 338.321,706.186C330.238,699.644 323.248,692.046 317.379,683.387C311.611,674.876 306.785,665.751 302.908,656.012C299.048,646.315 296.176,636.336 294.293,626.074C292.414,615.831 291.475,605.729 291.475,595.767L291.475,548.722C291.475,522.884 284.514,504.422 273.334,492.44C259.565,477.682 243.238,467.441 232.154,461.526C226.223,458.36 216.871,455.925 217.845,452.841C217.949,448.622 225.293,448.88 236.835,441.881C247.277,435.549 263.63,423.429 273.384,411.88C284.486,395.64 291.475,381.517 291.475,355.528L291.475,308.204C291.475,298.254 292.319,288.164 294.008,277.932C295.702,267.675 298.338,257.7 301.914,248.007C305.512,238.254 310.108,229.117 315.695,220.596C321.392,211.905 328.313,204.28 336.425,197.714C344.808,190.928 354.468,185.554 365.345,181.563C376.611,177.429 389.366,175.14 403.628,174.726C407.558,174.613 410.911,176.136 411.29,178.207L417.136,210.221C417.334,211.306 416.674,212.397 415.312,213.233C413.95,214.069 412.008,214.575 409.948,214.633C399.026,214.936 390.352,217.525 383.905,222.38C376.517,227.943 371.025,235.041 367.288,243.646C363.387,252.628 360.903,262.745 359.815,273.995C358.708,285.433 358.154,296.779 358.154,308.032C358.154,308.032 358.154,355.357 358.154,355.357C358.154,355.362 358.154,355.368 358.154,355.374C357.965,378.104 352.619,398.037 342.201,415.179C332.644,430.905 318.275,443.235 299.27,452.232C318.285,461.062 332.655,473.307 342.21,489.03C352.625,506.167 357.965,525.999 358.154,548.533C358.154,548.539 358.154,548.544 358.154,548.55L358.154,595.596C358.154,606.989 359.073,618.336 360.91,629.637C362.727,640.808 365.85,650.89 370.3,659.881C374.61,668.588 380.275,675.768 387.4,681.398C393.478,686.2 401.027,688.869 410.332,689.169C412.32,689.233 414.159,689.718 415.438,690.515C416.717,691.312 417.328,692.355 417.135,693.41L411.289,725.424ZM397.209,720.715L401.636,696.471C391.187,695.131 382.248,691.65 374.972,685.9C367.064,679.652 360.666,671.707 355.882,662.042C351.238,652.66 347.959,642.142 346.064,630.486C344.19,618.96 343.253,607.387 343.253,595.767L343.253,548.731C343.07,527.099 338.017,508.054 328.018,491.602C318.332,475.664 303.396,463.602 282.968,455.501C281.117,454.767 280.041,453.608 280.061,452.369C280.082,451.13 281.196,449.956 283.071,449.196C303.459,440.935 318.361,428.809 328.028,412.902C338.023,396.455 343.07,377.326 343.253,355.518C343.253,355.518 343.253,308.204 343.253,308.204C343.253,296.816 343.813,285.335 344.933,273.76C346.071,261.998 348.691,251.422 352.77,242.031C357.013,232.263 363.398,224.237 371.785,217.922C379.502,212.112 389.442,208.562 401.593,207.26C401.593,207.26 397.166,183.017 397.166,183.017C388.578,183.762 380.734,185.429 373.642,188.031C364.291,191.463 356.043,196.111 348.836,201.945C341.358,207.998 335.01,215.035 329.758,223.046C324.395,231.227 319.99,240 316.536,249.362C313.06,258.785 310.499,268.481 308.853,278.453C307.202,288.45 306.376,298.31 306.376,308.032C306.376,308.032 306.376,355.357 306.376,355.357C306.376,383.187 297.271,399.411 286.329,415.645C276.946,429.825 267.455,439.321 240.818,452.758C269.432,466.69 278.095,478.483 286.379,488.47C297.321,504.435 306.376,520.94 306.376,548.55C306.376,548.55 306.376,595.596 306.376,595.596C306.376,605.307 307.293,615.155 309.125,625.14C310.954,635.107 313.742,644.8 317.491,654.219C321.223,663.594 325.862,672.379 331.415,680.571C336.866,688.614 343.331,695.678 350.838,701.755C358.095,707.63 366.273,712.31 375.431,715.766C382.11,718.286 389.369,719.937 397.209,720.715L397.209,720.715Z" style="fill:white;"/>
                            </g>
                        </g>
                    </g>
                    <g transform="matrix(0.861844,0,0,0.862079,73.0549,59.503)">
                        <g opacity="0.75">
                            <g transform="matrix(0.0203686,0.939509,1.77163,1.08481e-16,-267.03,-183.135)">
                                <path d="M403.874,725.127C391.811,724.756 380.861,722.715 371.025,719.003C361.189,715.291 352.374,710.28 344.579,703.971C336.785,697.661 330.057,690.33 324.397,681.979C318.736,673.627 314.004,664.673 310.2,655.115C306.395,645.558 303.565,635.722 301.709,625.607C299.853,615.493 298.925,605.518 298.925,595.682L298.925,548.636C298.925,521.912 292.569,502.518 279.856,490.455C267.144,478.392 247.704,472.268 221.536,472.082L221.536,431.718C247.704,431.718 267.144,425.732 279.856,413.762C292.569,401.792 298.925,382.352 298.925,355.442L298.925,308.118C298.925,298.282 299.76,288.307 301.431,278.192C303.101,268.078 305.699,258.242 309.225,248.684C312.751,239.127 317.252,230.172 322.727,221.821C328.201,213.47 334.836,206.139 342.631,199.829C350.425,193.519 359.38,188.509 369.494,184.797C379.608,181.085 391.068,179.044 403.874,178.673L409.719,210.686C396.357,211.057 385.733,214.212 377.845,220.151C369.958,226.09 364.019,233.652 360.029,242.839C356.039,252.025 353.487,262.371 352.374,273.878C351.26,285.384 350.703,296.797 350.703,308.118L350.703,355.442C350.518,377.712 345.322,397.245 335.114,414.041C324.907,430.836 309.04,443.595 287.512,452.317C309.04,460.854 324.907,473.521 335.114,490.316C345.322,507.111 350.518,526.551 350.703,548.636L350.703,595.682C350.703,607.188 351.631,618.648 353.487,630.061C355.343,641.475 358.544,651.775 363.091,660.961C367.638,670.148 373.67,677.71 381.186,683.649C388.702,689.588 398.213,692.743 409.719,693.114L403.874,725.127Z" style="fill:rgb(0,179,31);fill-rule:nonzero;"/>
                            </g>
                            <g transform="matrix(0.0203686,0.939509,1.77163,1.08481e-16,-267.03,-183.135)">
                                <path d="M411.289,725.424C410.897,727.574 407.334,729.197 403.282,729.073C389.819,728.658 377.597,726.382 366.619,722.24C356.105,718.272 346.652,712.931 338.321,706.186C330.238,699.644 323.248,692.046 317.379,683.387C311.611,674.876 306.785,665.751 302.908,656.012C299.048,646.315 296.176,636.336 294.293,626.074C292.414,615.831 291.475,605.729 291.475,595.767L291.475,548.722C291.475,522.884 285.625,504.103 273.334,492.44C261.985,481.671 244.636,476.2 221.275,476.034C217.265,476.006 214.086,474.296 214.086,472.168L214.086,431.803C214.086,430.74 214.893,429.713 216.325,428.953C217.758,428.194 219.694,427.765 221.698,427.765C244.879,427.765 262.122,422.484 273.384,411.88C285.662,400.319 291.475,381.517 291.475,355.528L291.475,308.204C291.475,298.254 292.319,288.164 294.008,277.932C295.702,267.675 298.338,257.7 301.914,248.007C305.512,238.254 310.108,229.117 315.695,220.596C321.392,211.905 328.313,204.28 336.425,197.714C344.808,190.928 354.468,185.554 365.345,181.563C376.611,177.429 389.366,175.14 403.628,174.726C407.558,174.613 410.911,176.136 411.29,178.207L417.136,210.221C417.334,211.306 416.674,212.397 415.312,213.233C413.95,214.069 412.008,214.575 409.948,214.633C399.026,214.936 390.352,217.525 383.905,222.38C376.517,227.943 371.025,235.041 367.288,243.646C363.387,252.628 360.903,262.745 359.815,273.995C358.708,285.433 358.154,296.779 358.154,308.032C358.154,308.032 358.154,355.357 358.154,355.357C358.154,355.362 358.154,355.368 358.154,355.374C357.965,378.104 352.619,398.037 342.201,415.179C332.644,430.905 318.275,443.235 299.27,452.232C318.285,461.062 332.655,473.307 342.21,489.03C352.625,506.167 357.965,525.999 358.154,548.533C358.154,548.539 358.154,548.544 358.154,548.55L358.154,595.596C358.154,606.989 359.073,618.336 360.91,629.637C362.727,640.808 365.85,650.89 370.3,659.881C374.61,668.588 380.275,675.768 387.4,681.398C393.478,686.2 401.027,688.869 410.332,689.169C412.32,689.233 414.159,689.718 415.438,690.515C416.717,691.312 417.328,692.355 417.135,693.41L411.289,725.424ZM397.209,720.715L401.636,696.471C391.187,695.131 382.248,691.65 374.972,685.9C367.064,679.652 360.666,671.707 355.882,662.042C351.238,652.66 347.959,642.142 346.064,630.486C344.19,618.96 343.253,607.387 343.253,595.767L343.253,548.731C343.07,527.099 338.017,508.054 328.018,491.602C318.332,475.664 303.396,463.602 282.968,455.501C281.117,454.767 280.041,453.608 280.061,452.369C280.082,451.13 281.196,449.956 283.071,449.196C303.459,440.935 318.361,428.809 328.028,412.902C338.023,396.455 343.07,377.326 343.253,355.518C343.253,355.518 343.253,308.204 343.253,308.204C343.253,296.816 343.813,285.335 344.933,273.76C346.071,261.998 348.691,251.422 352.77,242.031C357.013,232.263 363.398,224.237 371.785,217.922C379.502,212.112 389.442,208.562 401.593,207.26C401.593,207.26 397.166,183.017 397.166,183.017C388.578,183.762 380.734,185.429 373.642,188.031C364.291,191.463 356.043,196.111 348.836,201.945C341.358,207.998 335.01,215.035 329.758,223.046C324.395,231.227 319.99,240 316.536,249.362C313.06,258.785 310.499,268.481 308.853,278.453C307.202,288.45 306.376,298.31 306.376,308.032C306.376,308.032 306.376,355.357 306.376,355.357C306.376,383.187 299.476,403.265 286.329,415.645C273.427,427.793 254.324,434.425 228.987,435.51C228.987,435.51 228.987,468.324 228.987,468.324C254.36,469.529 273.493,476.242 286.379,488.47C299.513,500.933 306.376,520.94 306.376,548.55C306.376,548.55 306.376,595.596 306.376,595.596C306.376,605.307 307.293,615.155 309.125,625.14C310.954,635.107 313.742,644.8 317.491,654.219C321.223,663.594 325.862,672.379 331.415,680.571C336.866,688.614 343.331,695.678 350.838,701.755C358.095,707.63 366.273,712.31 375.431,715.766C382.11,718.286 389.369,719.937 397.209,720.715L397.209,720.715Z" style="fill:white;"/>
                            </g>
                        </g>
                    </g>
                    <g transform="matrix(1.06463,0,0,1.06492,-37.8145,-4.16449)">
                        <g transform="matrix(0.0203686,0.939509,1.77163,1.08481e-16,-267.03,-183.135)">
                            <path d="M403.874,725.127C391.811,724.756 380.861,722.715 371.025,719.003C361.189,715.291 352.374,710.28 344.579,703.971C336.785,697.661 330.057,690.33 324.397,681.979C318.736,673.627 314.004,664.673 310.2,655.115C306.395,645.558 303.565,635.722 301.709,625.607C299.853,615.493 298.925,605.518 298.925,595.682L298.925,548.636C298.925,521.912 292.569,502.518 279.856,490.455C267.144,478.392 247.704,472.268 221.536,472.082L221.536,431.718C247.704,431.718 267.144,425.732 279.856,413.762C292.569,401.792 298.925,382.352 298.925,355.442L298.925,308.118C298.925,298.282 299.76,288.307 301.431,278.192C303.101,268.078 305.699,258.242 309.225,248.684C312.751,239.127 317.252,230.172 322.727,221.821C328.201,213.47 334.836,206.139 342.631,199.829C350.425,193.519 359.38,188.509 369.494,184.797C379.608,181.085 391.068,179.044 403.874,178.673L409.719,210.686C396.357,211.057 385.733,214.212 377.845,220.151C369.958,226.09 364.019,233.652 360.029,242.839C356.039,252.025 353.487,262.371 352.374,273.878C351.26,285.384 350.703,296.797 350.703,308.118L350.703,355.442C350.518,377.712 345.322,397.245 335.114,414.041C324.907,430.836 309.04,443.595 287.512,452.317C309.04,460.854 324.907,473.521 335.114,490.316C345.322,507.111 350.518,526.551 350.703,548.636L350.703,595.682C350.703,607.188 351.631,618.648 353.487,630.061C355.343,641.475 358.544,651.775 363.091,660.961C367.638,670.148 373.67,677.71 381.186,683.649C388.702,689.588 398.213,692.743 409.719,693.114L403.874,725.127Z" style="fill:rgb(0,179,31);fill-rule:nonzero;"/>
                        </g>
                        <g transform="matrix(0.0203686,0.939509,1.77163,1.08481e-16,-267.03,-183.135)">
                            <path d="M411.289,725.424C410.897,727.574 407.334,729.197 403.282,729.073C389.819,728.658 377.597,726.382 366.619,722.24C356.105,718.272 346.652,712.931 338.321,706.186C330.238,699.644 323.248,692.046 317.379,683.387C311.611,674.876 306.785,665.751 302.908,656.012C299.048,646.315 296.176,636.336 294.293,626.074C292.414,615.831 291.475,605.729 291.475,595.767L291.475,548.722C291.475,522.884 285.625,504.103 273.334,492.44C261.985,481.671 244.636,476.2 221.275,476.034C217.265,476.006 214.086,474.296 214.086,472.168L214.086,431.803C214.086,430.74 214.893,429.713 216.325,428.953C217.758,428.194 219.694,427.765 221.698,427.765C244.879,427.765 262.122,422.484 273.384,411.88C285.662,400.319 291.475,381.517 291.475,355.528L291.475,308.204C291.475,298.254 292.319,288.164 294.008,277.932C295.702,267.675 298.338,257.7 301.914,248.007C305.512,238.254 310.108,229.117 315.695,220.596C321.392,211.905 328.313,204.28 336.425,197.714C344.808,190.928 354.468,185.554 365.345,181.563C376.611,177.429 389.366,175.14 403.628,174.726C407.558,174.613 410.911,176.136 411.29,178.207L417.136,210.221C417.334,211.306 416.674,212.397 415.312,213.233C413.95,214.069 412.008,214.575 409.948,214.633C399.026,214.936 390.352,217.525 383.905,222.38C376.517,227.943 371.025,235.041 367.288,243.646C363.387,252.628 360.903,262.745 359.815,273.995C358.708,285.433 358.154,296.779 358.154,308.032C358.154,308.032 358.154,355.357 358.154,355.357C358.154,355.362 358.154,355.368 358.154,355.374C357.965,378.104 352.619,398.037 342.201,415.179C332.644,430.905 318.275,443.235 299.27,452.232C318.285,461.062 332.655,473.307 342.21,489.03C352.625,506.167 357.965,525.999 358.154,548.533C358.154,548.539 358.154,548.544 358.154,548.55L358.154,595.596C358.154,606.989 359.073,618.336 360.91,629.637C362.727,640.808 365.85,650.89 370.3,659.881C374.61,668.588 380.275,675.768 387.4,681.398C393.478,686.2 401.027,688.869 410.332,689.169C412.32,689.233 414.159,689.718 415.438,690.515C416.717,691.312 417.328,692.355 417.135,693.41L411.289,725.424ZM397.209,720.715L401.636,696.471C391.187,695.131 382.248,691.65 374.972,685.9C367.064,679.652 360.666,671.707 355.882,662.042C351.238,652.66 347.959,642.142 346.064,630.486C344.19,618.96 343.253,607.387 343.253,595.767L343.253,548.731C343.07,527.099 338.017,508.054 328.018,491.602C318.332,475.664 303.396,463.602 282.968,455.501C281.117,454.767 280.041,453.608 280.061,452.369C280.082,451.13 281.196,449.956 283.071,449.196C303.459,440.935 318.361,428.809 328.028,412.902C338.023,396.455 343.07,377.326 343.253,355.518C343.253,355.518 343.253,308.204 343.253,308.204C343.253,296.816 343.813,285.335 344.933,273.76C346.071,261.998 348.691,251.422 352.77,242.031C357.013,232.263 363.398,224.237 371.785,217.922C379.502,212.112 389.442,208.562 401.593,207.26C401.593,207.26 397.166,183.017 397.166,183.017C388.578,183.762 380.734,185.429 373.642,188.031C364.291,191.463 356.043,196.111 348.836,201.945C341.358,207.998 335.01,215.035 329.758,223.046C324.395,231.227 319.99,240 316.536,249.362C313.06,258.785 310.499,268.481 308.853,278.453C307.202,288.45 306.376,298.31 306.376,308.032C306.376,308.032 306.376,355.357 306.376,355.357C306.376,383.187 299.476,403.265 286.329,415.645C273.427,427.793 254.324,434.425 228.987,435.51C228.987,435.51 228.987,468.324 228.987,468.324C254.36,469.529 273.493,476.242 286.379,488.47C299.513,500.933 306.376,520.94 306.376,548.55C306.376,548.55 306.376,595.596 306.376,595.596C306.376,605.307 307.293,615.155 309.125,625.14C310.954,635.107 313.742,644.8 317.491,654.219C321.223,663.594 325.862,672.379 331.415,680.571C336.866,688.614 343.331,695.678 350.838,701.755C358.095,707.63 366.273,712.31 375.431,715.766C382.11,718.286 389.369,719.937 397.209,720.715L397.209,720.715Z" style="fill:white;"/>
                        </g>
                    </g>
                </g>
            </g>
            <g id="RSSO" transform="matrix(0.670161,0,0,1.73746,390.22,-398.681)">
                <g transform="matrix(0.549565,0,0,0.892983,174.382,253.551)">
                    <g opacity="0.25">
                        <path d="M199.697,368.914L145.461,368.914L145.461,507.433L73.91,507.433L73.91,136.692L198.169,136.692C218.709,136.692 237.297,139.111 253.933,143.949C270.569,148.787 284.786,155.874 296.583,165.21C308.381,174.547 317.463,186.175 323.829,200.095C330.195,214.014 333.377,230.141 333.377,248.474C333.377,261.715 331.807,273.64 328.667,284.25C325.526,294.859 321.028,304.366 315.171,312.768C309.315,321.171 302.27,328.513 294.037,334.794C285.804,341.075 276.595,346.507 266.41,351.09L346.109,504.122L346.109,507.433L269.465,507.433L199.697,368.914ZM145.461,310.859L198.424,310.859C218.624,310.859 234.199,305.724 245.148,295.454C256.097,285.183 261.572,271.136 261.572,253.312C261.572,234.809 256.225,220.423 245.53,210.153C234.836,199.883 219.049,194.747 198.169,194.747L145.461,194.747L145.461,310.859Z" style="fill:rgb(255,76,77);fill-rule:nonzero;stroke:white;stroke-width:10.87px;"/>
                        <path d="M579.35,410.673C579.35,404.053 578.204,397.857 575.912,392.085C573.62,386.314 569.716,380.924 564.199,375.916C558.682,370.909 551.468,366.325 542.556,362.166C533.644,358.008 522.567,354.146 509.327,350.581C493.2,346.167 477.795,340.65 463.111,334.03C448.428,327.41 435.484,319.431 424.28,310.095C413.077,300.758 404.122,289.894 397.417,277.502C390.712,265.11 387.359,250.851 387.359,234.724C387.359,219.107 390.669,204.933 397.289,192.201C403.91,179.47 413.077,168.606 424.789,159.609C436.502,150.612 450.337,143.694 466.294,138.856C482.251,134.018 499.566,131.599 518.239,131.599C537.59,131.599 555.287,134.4 571.329,140.002C587.37,145.604 601.163,153.455 612.706,163.555C624.249,173.656 633.246,185.666 639.697,199.585C646.147,213.505 649.373,228.783 649.373,245.419L579.604,245.419C579.265,237.101 577.779,229.462 575.148,222.502C572.517,215.542 568.613,209.558 563.435,204.551C558.258,199.543 551.807,195.639 544.083,192.838C536.36,190.037 527.32,188.636 516.965,188.636C507.459,188.636 499.014,189.782 491.63,192.074C484.245,194.366 478.007,197.591 472.914,201.75C467.822,205.909 463.96,210.832 461.329,216.518C458.698,222.205 457.382,228.359 457.382,234.979C457.382,241.939 459.122,248.22 462.602,253.822C466.082,259.423 471.132,264.474 477.752,268.972C484.373,273.47 492.394,277.587 501.815,281.322C511.236,285.056 521.888,288.536 533.771,291.761C550.746,296.684 566.364,302.71 580.623,309.84C594.882,316.97 607.147,325.415 617.417,335.176C627.687,344.937 635.665,356.055 641.352,368.532C647.039,381.009 649.882,394.886 649.882,410.164C649.882,426.46 646.614,440.932 640.079,453.579C633.543,466.225 624.504,476.92 612.961,485.662C601.418,494.404 587.668,501.024 571.711,505.523C555.754,510.021 538.354,512.271 519.512,512.271C507.799,512.271 496.128,511.21 484.5,509.088C472.872,506.966 461.753,503.698 451.144,499.285C440.534,494.871 430.646,489.354 421.479,482.734C412.313,476.113 404.377,468.389 397.671,459.562C390.966,450.735 385.704,440.72 381.884,429.516C378.065,418.312 376.155,405.92 376.155,392.34L446.433,392.34C446.772,403.544 448.725,413.135 452.289,421.113C455.854,429.092 460.82,435.627 467.185,440.72C473.551,445.812 481.19,449.547 490.102,451.923C499.014,454.3 508.817,455.488 519.512,455.488C529.018,455.488 537.463,454.385 544.847,452.178C552.232,449.971 558.47,446.916 563.563,443.011C568.655,439.107 572.56,434.396 575.276,428.879C577.992,423.362 579.35,417.294 579.35,410.673Z" style="fill:rgb(255,76,77);fill-rule:nonzero;stroke:white;stroke-width:10.87px;"/>
                        <g transform="matrix(-1,0,0,-1,1651.92,643.87)">
                            <path d="M892.289,410.673C892.289,404.053 891.144,397.857 888.852,392.085C886.56,386.314 882.656,380.924 877.139,375.916C871.622,370.909 864.408,366.325 855.495,362.166C846.583,358.008 835.507,354.146 822.266,350.581C806.14,346.167 790.735,340.65 776.051,334.03C761.367,327.41 748.424,319.431 737.22,310.095C726.016,300.758 717.062,289.894 710.357,277.502C703.651,265.11 700.299,250.851 700.299,234.724C700.299,219.107 703.609,204.933 710.229,192.201C716.85,179.47 726.016,168.606 737.729,159.609C749.442,150.612 763.277,143.694 779.234,138.856C795.191,134.018 812.506,131.599 831.178,131.599C850.53,131.599 868.227,134.4 884.269,140.002C900.31,145.604 914.103,153.455 925.646,163.555C937.189,173.656 946.186,185.666 952.637,199.585C959.087,213.505 962.313,228.783 962.313,245.419L892.544,245.419C892.205,237.101 890.719,229.462 888.088,222.502C885.457,215.542 881.553,209.558 876.375,204.551C871.198,199.543 864.747,195.639 857.023,192.838C849.3,190.037 840.26,188.636 829.905,188.636C820.399,188.636 811.954,189.782 804.57,192.074C797.185,194.366 790.947,197.591 785.854,201.75C780.762,205.909 776.9,210.832 774.269,216.518C771.637,222.205 770.322,228.359 770.322,234.979C770.322,241.939 772.062,248.22 775.542,253.822C779.022,259.423 784.072,264.474 790.692,268.972C797.313,273.47 805.333,277.587 814.755,281.322C824.176,285.056 834.828,288.536 846.711,291.761C863.686,296.684 879.303,302.71 893.563,309.84C907.822,316.97 920.087,325.415 930.357,335.176C940.627,344.937 948.605,356.055 954.292,368.532C959.979,381.009 962.822,394.886 962.822,410.164C962.822,426.46 959.554,440.932 953.019,453.579C946.483,466.225 937.444,476.92 925.901,485.662C914.357,494.404 900.607,501.024 884.651,505.523C868.694,510.021 851.294,512.271 832.452,512.271C820.739,512.271 809.068,511.21 797.44,509.088C785.812,506.966 774.693,503.698 764.083,499.285C753.474,494.871 743.586,489.354 734.419,482.734C725.252,476.113 717.316,468.389 710.611,459.562C703.906,450.735 698.644,440.72 694.824,429.516C691.005,418.312 689.095,405.92 689.095,392.34L759.373,392.34C759.712,403.544 761.664,413.135 765.229,421.113C768.794,429.092 773.759,435.627 780.125,440.72C786.491,445.812 794.13,449.547 803.042,451.923C811.954,454.3 821.757,455.488 832.452,455.488C841.958,455.488 850.403,454.385 857.787,452.178C865.171,449.971 871.41,446.916 876.502,443.011C881.595,439.107 885.499,434.396 888.215,428.879C890.931,423.362 892.289,417.294 892.289,410.673Z" style="fill:rgb(255,76,77);fill-rule:nonzero;stroke:white;stroke-width:10.87px;"/>
                        </g>
                        <g transform="matrix(1,0,0,-1,0,644.125)">
                            <path d="M1256.66,366.368C1256.66,390.303 1253.91,411.395 1248.39,429.643C1242.87,447.892 1234.94,463.17 1224.58,475.477C1214.23,487.784 1201.58,497.078 1186.64,503.359C1171.7,509.639 1154.9,512.78 1136.23,512.78C1117.72,512.78 1101,509.639 1086.06,503.359C1071.12,497.078 1058.43,487.784 1048,475.477C1037.56,463.17 1029.49,447.892 1023.81,429.643C1018.12,411.395 1015.28,390.303 1015.28,366.368L1015.28,277.757C1015.28,253.822 1018.08,232.73 1023.68,214.481C1029.28,196.233 1037.3,180.955 1047.74,168.648C1058.18,156.341 1070.83,147.047 1085.68,140.766C1100.53,134.485 1117.21,131.345 1135.71,131.345C1154.39,131.345 1171.19,134.485 1186.13,140.766C1201.07,147.047 1213.76,156.341 1224.2,168.648C1234.64,180.955 1242.66,196.233 1248.26,214.481C1253.86,232.73 1256.66,253.822 1256.66,277.757L1256.66,366.368ZM1086.57,335.812L1185.37,262.224C1184.86,237.271 1180.53,218.768 1172.38,206.715C1164.23,194.663 1152.01,188.636 1135.71,188.636C1119.25,188.636 1106.94,195.002 1098.79,207.734C1090.65,220.465 1086.57,240.072 1086.57,266.553L1086.57,335.812ZM1185.37,310.349L1086.57,383.683C1087.42,408.127 1091.92,426.248 1100.07,438.046C1108.21,449.844 1120.27,455.743 1136.23,455.743C1152.86,455.743 1165.21,449.292 1173.27,436.391C1181.34,423.49 1185.37,403.714 1185.37,377.062L1185.37,310.349Z" style="fill:rgb(255,76,77);fill-rule:nonzero;stroke:white;stroke-width:10.87px;"/>
                        </g>
                    </g>
                </g>
                <g transform="matrix(0.634113,0,0,1.03037,118.133,209.306)">
                    <g opacity="0.5">
                        <path d="M199.697,368.914L145.461,368.914L145.461,507.433L73.91,507.433L73.91,136.692L198.169,136.692C218.709,136.692 237.297,139.111 253.933,143.949C270.569,148.787 284.786,155.874 296.583,165.21C308.381,174.547 317.463,186.175 323.829,200.095C330.195,214.014 333.377,230.141 333.377,248.474C333.377,261.715 331.807,273.64 328.667,284.25C325.526,294.859 321.028,304.366 315.171,312.768C309.315,321.171 302.27,328.513 294.037,334.794C285.804,341.075 276.595,346.507 266.41,351.09L346.109,504.122L346.109,507.433L269.465,507.433L199.697,368.914ZM145.461,310.859L198.424,310.859C218.624,310.859 234.199,305.724 245.148,295.454C256.097,285.183 261.572,271.136 261.572,253.312C261.572,234.809 256.225,220.423 245.53,210.153C234.836,199.883 219.049,194.747 198.169,194.747L145.461,194.747L145.461,310.859Z" style="fill:rgb(255,76,77);fill-rule:nonzero;stroke:white;stroke-width:9.42px;"/>
                        <path d="M579.35,410.673C579.35,404.053 578.204,397.857 575.912,392.085C573.62,386.314 569.716,380.924 564.199,375.916C558.682,370.909 551.468,366.325 542.556,362.166C533.644,358.008 522.567,354.146 509.327,350.581C493.2,346.167 477.795,340.65 463.111,334.03C448.428,327.41 435.484,319.431 424.28,310.095C413.077,300.758 404.122,289.894 397.417,277.502C390.712,265.11 387.359,250.851 387.359,234.724C387.359,219.107 390.669,204.933 397.289,192.201C403.91,179.47 413.077,168.606 424.789,159.609C436.502,150.612 450.337,143.694 466.294,138.856C482.251,134.018 499.566,131.599 518.239,131.599C537.59,131.599 555.287,134.4 571.329,140.002C587.37,145.604 601.163,153.455 612.706,163.555C624.249,173.656 633.246,185.666 639.697,199.585C646.147,213.505 649.373,228.783 649.373,245.419L579.604,245.419C579.265,237.101 577.779,229.462 575.148,222.502C572.517,215.542 568.613,209.558 563.435,204.551C558.258,199.543 551.807,195.639 544.083,192.838C536.36,190.037 527.32,188.636 516.965,188.636C507.459,188.636 499.014,189.782 491.63,192.074C484.245,194.366 478.007,197.591 472.914,201.75C467.822,205.909 463.96,210.832 461.329,216.518C458.698,222.205 457.382,228.359 457.382,234.979C457.382,241.939 459.122,248.22 462.602,253.822C466.082,259.423 471.132,264.474 477.752,268.972C484.373,273.47 492.394,277.587 501.815,281.322C511.236,285.056 521.888,288.536 533.771,291.761C550.746,296.684 566.364,302.71 580.623,309.84C594.882,316.97 607.147,325.415 617.417,335.176C627.687,344.937 635.665,356.055 641.352,368.532C647.039,381.009 649.882,394.886 649.882,410.164C649.882,426.46 646.614,440.932 640.079,453.579C633.543,466.225 624.504,476.92 612.961,485.662C601.418,494.404 587.668,501.024 571.711,505.523C555.754,510.021 538.354,512.271 519.512,512.271C507.799,512.271 496.128,511.21 484.5,509.088C472.872,506.966 461.753,503.698 451.144,499.285C440.534,494.871 430.646,489.354 421.479,482.734C412.313,476.113 404.377,468.389 397.671,459.562C390.966,450.735 385.704,440.72 381.884,429.516C378.065,418.312 376.155,405.92 376.155,392.34L446.433,392.34C446.772,403.544 448.725,413.135 452.289,421.113C455.854,429.092 460.82,435.627 467.185,440.72C473.551,445.812 481.19,449.547 490.102,451.923C499.014,454.3 508.817,455.488 519.512,455.488C529.018,455.488 537.463,454.385 544.847,452.178C552.232,449.971 558.47,446.916 563.563,443.011C568.655,439.107 572.56,434.396 575.276,428.879C577.992,423.362 579.35,417.294 579.35,410.673Z" style="fill:rgb(255,76,77);fill-rule:nonzero;stroke:white;stroke-width:9.42px;"/>
                        <g transform="matrix(-1,0,0,-1,1651.92,643.87)">
                            <path d="M892.289,410.673C892.289,404.053 891.144,397.857 888.852,392.085C886.56,386.314 882.656,380.924 877.139,375.916C871.622,370.909 864.408,366.325 855.495,362.166C846.583,358.008 835.507,354.146 822.266,350.581C806.14,346.167 790.735,340.65 776.051,334.03C761.367,327.41 748.424,319.431 737.22,310.095C726.016,300.758 717.062,289.894 710.357,277.502C703.651,265.11 700.299,250.851 700.299,234.724C700.299,219.107 703.609,204.933 710.229,192.201C716.85,179.47 726.016,168.606 737.729,159.609C749.442,150.612 763.277,143.694 779.234,138.856C795.191,134.018 812.506,131.599 831.178,131.599C850.53,131.599 868.227,134.4 884.269,140.002C900.31,145.604 914.103,153.455 925.646,163.555C937.189,173.656 946.186,185.666 952.637,199.585C959.087,213.505 962.313,228.783 962.313,245.419L892.544,245.419C892.205,237.101 890.719,229.462 888.088,222.502C885.457,215.542 881.553,209.558 876.375,204.551C871.198,199.543 864.747,195.639 857.023,192.838C849.3,190.037 840.26,188.636 829.905,188.636C820.399,188.636 811.954,189.782 804.57,192.074C797.185,194.366 790.947,197.591 785.854,201.75C780.762,205.909 776.9,210.832 774.269,216.518C771.637,222.205 770.322,228.359 770.322,234.979C770.322,241.939 772.062,248.22 775.542,253.822C779.022,259.423 784.072,264.474 790.692,268.972C797.313,273.47 805.333,277.587 814.755,281.322C824.176,285.056 834.828,288.536 846.711,291.761C863.686,296.684 879.303,302.71 893.563,309.84C907.822,316.97 920.087,325.415 930.357,335.176C940.627,344.937 948.605,356.055 954.292,368.532C959.979,381.009 962.822,394.886 962.822,410.164C962.822,426.46 959.554,440.932 953.019,453.579C946.483,466.225 937.444,476.92 925.901,485.662C914.357,494.404 900.607,501.024 884.651,505.523C868.694,510.021 851.294,512.271 832.452,512.271C820.739,512.271 809.068,511.21 797.44,509.088C785.812,506.966 774.693,503.698 764.083,499.285C753.474,494.871 743.586,489.354 734.419,482.734C725.252,476.113 717.316,468.389 710.611,459.562C703.906,450.735 698.644,440.72 694.824,429.516C691.005,418.312 689.095,405.92 689.095,392.34L759.373,392.34C759.712,403.544 761.664,413.135 765.229,421.113C768.794,429.092 773.759,435.627 780.125,440.72C786.491,445.812 794.13,449.547 803.042,451.923C811.954,454.3 821.757,455.488 832.452,455.488C841.958,455.488 850.403,454.385 857.787,452.178C865.171,449.971 871.41,446.916 876.502,443.011C881.595,439.107 885.499,434.396 888.215,428.879C890.931,423.362 892.289,417.294 892.289,410.673Z" style="fill:rgb(255,76,77);fill-rule:nonzero;stroke:white;stroke-width:9.42px;"/>
                        </g>
                        <g transform="matrix(1,0,0,-1,0,644.125)">
                            <path d="M1256.66,366.368C1256.66,390.303 1253.91,411.395 1248.39,429.643C1242.87,447.892 1234.94,463.17 1224.58,475.477C1214.23,487.784 1201.58,497.078 1186.64,503.359C1171.7,509.639 1154.9,512.78 1136.23,512.78C1117.72,512.78 1101,509.639 1086.06,503.359C1071.12,497.078 1058.43,487.784 1048,475.477C1037.56,463.17 1029.49,447.892 1023.81,429.643C1018.12,411.395 1015.28,390.303 1015.28,366.368L1015.28,277.757C1015.28,253.822 1018.08,232.73 1023.68,214.481C1029.28,196.233 1037.3,180.955 1047.74,168.648C1058.18,156.341 1070.83,147.047 1085.68,140.766C1100.53,134.485 1117.21,131.345 1135.71,131.345C1154.39,131.345 1171.19,134.485 1186.13,140.766C1201.07,147.047 1213.76,156.341 1224.2,168.648C1234.64,180.955 1242.66,196.233 1248.26,214.481C1253.86,232.73 1256.66,253.822 1256.66,277.757L1256.66,366.368ZM1086.57,335.812L1185.37,262.224C1184.86,237.271 1180.53,218.768 1172.38,206.715C1164.23,194.663 1152.01,188.636 1135.71,188.636C1119.25,188.636 1106.94,195.002 1098.79,207.734C1090.65,220.465 1086.57,240.072 1086.57,266.553L1086.57,335.812ZM1185.37,310.349L1086.57,383.683C1087.42,408.127 1091.92,426.248 1100.07,438.046C1108.21,449.844 1120.27,455.743 1136.23,455.743C1152.86,455.743 1165.21,449.292 1173.27,436.391C1181.34,423.49 1185.37,403.714 1185.37,377.062L1185.37,310.349Z" style="fill:rgb(255,76,77);fill-rule:nonzero;stroke:white;stroke-width:9.42px;"/>
                        </g>
                    </g>
                </g>
                <g transform="matrix(0.718661,0,0,1.16775,61.8839,165.06)">
                    <g opacity="0.75">
                        <path d="M199.697,368.914L145.461,368.914L145.461,507.433L73.91,507.433L73.91,136.692L198.169,136.692C218.709,136.692 237.297,139.111 253.933,143.949C270.569,148.787 284.786,155.874 296.583,165.21C308.381,174.547 317.463,186.175 323.829,200.095C330.195,214.014 333.377,230.141 333.377,248.474C333.377,261.715 331.807,273.64 328.667,284.25C325.526,294.859 321.028,304.366 315.171,312.768C309.315,321.171 302.27,328.513 294.037,334.794C285.804,341.075 276.595,346.507 266.41,351.09L346.109,504.122L346.109,507.433L269.465,507.433L199.697,368.914ZM145.461,310.859L198.424,310.859C218.624,310.859 234.199,305.724 245.148,295.454C256.097,285.183 261.572,271.136 261.572,253.312C261.572,234.809 256.225,220.423 245.53,210.153C234.836,199.883 219.049,194.747 198.169,194.747L145.461,194.747L145.461,310.859Z" style="fill:rgb(255,76,77);fill-rule:nonzero;stroke:white;stroke-width:8.31px;"/>
                        <path d="M579.35,410.673C579.35,404.053 578.204,397.857 575.912,392.085C573.62,386.314 569.716,380.924 564.199,375.916C558.682,370.909 551.468,366.325 542.556,362.166C533.644,358.008 522.567,354.146 509.327,350.581C493.2,346.167 477.795,340.65 463.111,334.03C448.428,327.41 435.484,319.431 424.28,310.095C413.077,300.758 404.122,289.894 397.417,277.502C390.712,265.11 387.359,250.851 387.359,234.724C387.359,219.107 390.669,204.933 397.289,192.201C403.91,179.47 413.077,168.606 424.789,159.609C436.502,150.612 450.337,143.694 466.294,138.856C482.251,134.018 499.566,131.599 518.239,131.599C537.59,131.599 555.287,134.4 571.329,140.002C587.37,145.604 601.163,153.455 612.706,163.555C624.249,173.656 633.246,185.666 639.697,199.585C646.147,213.505 649.373,228.783 649.373,245.419L579.604,245.419C579.265,237.101 577.779,229.462 575.148,222.502C572.517,215.542 568.613,209.558 563.435,204.551C558.258,199.543 551.807,195.639 544.083,192.838C536.36,190.037 527.32,188.636 516.965,188.636C507.459,188.636 499.014,189.782 491.63,192.074C484.245,194.366 478.007,197.591 472.914,201.75C467.822,205.909 463.96,210.832 461.329,216.518C458.698,222.205 457.382,228.359 457.382,234.979C457.382,241.939 459.122,248.22 462.602,253.822C466.082,259.423 471.132,264.474 477.752,268.972C484.373,273.47 492.394,277.587 501.815,281.322C511.236,285.056 521.888,288.536 533.771,291.761C550.746,296.684 566.364,302.71 580.623,309.84C594.882,316.97 607.147,325.415 617.417,335.176C627.687,344.937 635.665,356.055 641.352,368.532C647.039,381.009 649.882,394.886 649.882,410.164C649.882,426.46 646.614,440.932 640.079,453.579C633.543,466.225 624.504,476.92 612.961,485.662C601.418,494.404 587.668,501.024 571.711,505.523C555.754,510.021 538.354,512.271 519.512,512.271C507.799,512.271 496.128,511.21 484.5,509.088C472.872,506.966 461.753,503.698 451.144,499.285C440.534,494.871 430.646,489.354 421.479,482.734C412.313,476.113 404.377,468.389 397.671,459.562C390.966,450.735 385.704,440.72 381.884,429.516C378.065,418.312 376.155,405.92 376.155,392.34L446.433,392.34C446.772,403.544 448.725,413.135 452.289,421.113C455.854,429.092 460.82,435.627 467.185,440.72C473.551,445.812 481.19,449.547 490.102,451.923C499.014,454.3 508.817,455.488 519.512,455.488C529.018,455.488 537.463,454.385 544.847,452.178C552.232,449.971 558.47,446.916 563.563,443.011C568.655,439.107 572.56,434.396 575.276,428.879C577.992,423.362 579.35,417.294 579.35,410.673Z" style="fill:rgb(255,76,77);fill-rule:nonzero;stroke:white;stroke-width:8.31px;"/>
                        <g transform="matrix(-1,0,0,-1,1651.92,643.87)">
                            <path d="M892.289,410.673C892.289,404.053 891.144,397.857 888.852,392.085C886.56,386.314 882.656,380.924 877.139,375.916C871.622,370.909 864.408,366.325 855.495,362.166C846.583,358.008 835.507,354.146 822.266,350.581C806.14,346.167 790.735,340.65 776.051,334.03C761.367,327.41 748.424,319.431 737.22,310.095C726.016,300.758 717.062,289.894 710.357,277.502C703.651,265.11 700.299,250.851 700.299,234.724C700.299,219.107 703.609,204.933 710.229,192.201C716.85,179.47 726.016,168.606 737.729,159.609C749.442,150.612 763.277,143.694 779.234,138.856C795.191,134.018 812.506,131.599 831.178,131.599C850.53,131.599 868.227,134.4 884.269,140.002C900.31,145.604 914.103,153.455 925.646,163.555C937.189,173.656 946.186,185.666 952.637,199.585C959.087,213.505 962.313,228.783 962.313,245.419L892.544,245.419C892.205,237.101 890.719,229.462 888.088,222.502C885.457,215.542 881.553,209.558 876.375,204.551C871.198,199.543 864.747,195.639 857.023,192.838C849.3,190.037 840.26,188.636 829.905,188.636C820.399,188.636 811.954,189.782 804.57,192.074C797.185,194.366 790.947,197.591 785.854,201.75C780.762,205.909 776.9,210.832 774.269,216.518C771.637,222.205 770.322,228.359 770.322,234.979C770.322,241.939 772.062,248.22 775.542,253.822C779.022,259.423 784.072,264.474 790.692,268.972C797.313,273.47 805.333,277.587 814.755,281.322C824.176,285.056 834.828,288.536 846.711,291.761C863.686,296.684 879.303,302.71 893.563,309.84C907.822,316.97 920.087,325.415 930.357,335.176C940.627,344.937 948.605,356.055 954.292,368.532C959.979,381.009 962.822,394.886 962.822,410.164C962.822,426.46 959.554,440.932 953.019,453.579C946.483,466.225 937.444,476.92 925.901,485.662C914.357,494.404 900.607,501.024 884.651,505.523C868.694,510.021 851.294,512.271 832.452,512.271C820.739,512.271 809.068,511.21 797.44,509.088C785.812,506.966 774.693,503.698 764.083,499.285C753.474,494.871 743.586,489.354 734.419,482.734C725.252,476.113 717.316,468.389 710.611,459.562C703.906,450.735 698.644,440.72 694.824,429.516C691.005,418.312 689.095,405.92 689.095,392.34L759.373,392.34C759.712,403.544 761.664,413.135 765.229,421.113C768.794,429.092 773.759,435.627 780.125,440.72C786.491,445.812 794.13,449.547 803.042,451.923C811.954,454.3 821.757,455.488 832.452,455.488C841.958,455.488 850.403,454.385 857.787,452.178C865.171,449.971 871.41,446.916 876.502,443.011C881.595,439.107 885.499,434.396 888.215,428.879C890.931,423.362 892.289,417.294 892.289,410.673Z" style="fill:rgb(255,76,77);fill-rule:nonzero;stroke:white;stroke-width:8.31px;"/>
                        </g>
                        <g transform="matrix(1,0,0,-1,0,644.125)">
                            <path d="M1256.66,366.368C1256.66,390.303 1253.91,411.395 1248.39,429.643C1242.87,447.892 1234.94,463.17 1224.58,475.477C1214.23,487.784 1201.58,497.078 1186.64,503.359C1171.7,509.639 1154.9,512.78 1136.23,512.78C1117.72,512.78 1101,509.639 1086.06,503.359C1071.12,497.078 1058.43,487.784 1048,475.477C1037.56,463.17 1029.49,447.892 1023.81,429.643C1018.12,411.395 1015.28,390.303 1015.28,366.368L1015.28,277.757C1015.28,253.822 1018.08,232.73 1023.68,214.481C1029.28,196.233 1037.3,180.955 1047.74,168.648C1058.18,156.341 1070.83,147.047 1085.68,140.766C1100.53,134.485 1117.21,131.345 1135.71,131.345C1154.39,131.345 1171.19,134.485 1186.13,140.766C1201.07,147.047 1213.76,156.341 1224.2,168.648C1234.64,180.955 1242.66,196.233 1248.26,214.481C1253.86,232.73 1256.66,253.822 1256.66,277.757L1256.66,366.368ZM1086.57,335.812L1185.37,262.224C1184.86,237.271 1180.53,218.768 1172.38,206.715C1164.23,194.663 1152.01,188.636 1135.71,188.636C1119.25,188.636 1106.94,195.002 1098.79,207.734C1090.65,220.465 1086.57,240.072 1086.57,266.553L1086.57,335.812ZM1185.37,310.349L1086.57,383.683C1087.42,408.127 1091.92,426.248 1100.07,438.046C1108.21,449.844 1120.27,455.743 1136.23,455.743C1152.86,455.743 1165.21,449.292 1173.27,436.391C1181.34,423.49 1185.37,403.714 1185.37,377.062L1185.37,310.349Z" style="fill:rgb(255,76,77);fill-rule:nonzero;stroke:white;stroke-width:8.31px;"/>
                        </g>
                    </g>
                </g>
                <g transform="matrix(0.803901,0,0,1.30625,5.17485,120.453)">
                    <path d="M199.697,368.914L145.461,368.914L145.461,507.433L73.91,507.433L73.91,136.692L198.169,136.692C218.709,136.692 237.297,139.111 253.933,143.949C270.569,148.787 284.786,155.874 296.583,165.21C308.381,174.547 317.463,186.175 323.829,200.095C330.195,214.014 333.377,230.141 333.377,248.474C333.377,261.715 331.807,273.64 328.667,284.25C325.526,294.859 321.028,304.366 315.171,312.768C309.315,321.171 302.27,328.513 294.037,334.794C285.804,341.075 276.595,346.507 266.41,351.09L346.109,504.122L346.109,507.433L269.465,507.433L199.697,368.914ZM145.461,310.859L198.424,310.859C218.624,310.859 234.199,305.724 245.148,295.454C256.097,285.183 261.572,271.136 261.572,253.312C261.572,234.809 256.225,220.423 245.53,210.153C234.836,199.883 219.049,194.747 198.169,194.747L145.461,194.747L145.461,310.859Z" style="fill:rgb(255,76,77);fill-rule:nonzero;stroke:white;stroke-width:7.43px;"/>
                    <path d="M579.35,410.673C579.35,404.053 578.204,397.857 575.912,392.085C573.62,386.314 569.716,380.924 564.199,375.916C558.682,370.909 551.468,366.325 542.556,362.166C533.644,358.008 522.567,354.146 509.327,350.581C493.2,346.167 477.795,340.65 463.111,334.03C448.428,327.41 435.484,319.431 424.28,310.095C413.077,300.758 404.122,289.894 397.417,277.502C390.712,265.11 387.359,250.851 387.359,234.724C387.359,219.107 390.669,204.933 397.289,192.201C403.91,179.47 413.077,168.606 424.789,159.609C436.502,150.612 450.337,143.694 466.294,138.856C482.251,134.018 499.566,131.599 518.239,131.599C537.59,131.599 555.287,134.4 571.329,140.002C587.37,145.604 601.163,153.455 612.706,163.555C624.249,173.656 633.246,185.666 639.697,199.585C646.147,213.505 649.373,228.783 649.373,245.419L579.604,245.419C579.265,237.101 577.779,229.462 575.148,222.502C572.517,215.542 568.613,209.558 563.435,204.551C558.258,199.543 551.807,195.639 544.083,192.838C536.36,190.037 527.32,188.636 516.965,188.636C507.459,188.636 499.014,189.782 491.63,192.074C484.245,194.366 478.007,197.591 472.914,201.75C467.822,205.909 463.96,210.832 461.329,216.518C458.698,222.205 457.382,228.359 457.382,234.979C457.382,241.939 459.122,248.22 462.602,253.822C466.082,259.423 471.132,264.474 477.752,268.972C484.373,273.47 492.394,277.587 501.815,281.322C511.236,285.056 521.888,288.536 533.771,291.761C550.746,296.684 566.364,302.71 580.623,309.84C594.882,316.97 607.147,325.415 617.417,335.176C627.687,344.937 635.665,356.055 641.352,368.532C647.039,381.009 649.882,394.886 649.882,410.164C649.882,426.46 646.614,440.932 640.079,453.579C633.543,466.225 624.504,476.92 612.961,485.662C601.418,494.404 587.668,501.024 571.711,505.523C555.754,510.021 538.354,512.271 519.512,512.271C507.799,512.271 496.128,511.21 484.5,509.088C472.872,506.966 461.753,503.698 451.144,499.285C440.534,494.871 430.646,489.354 421.479,482.734C412.313,476.113 404.377,468.389 397.671,459.562C390.966,450.735 385.704,440.72 381.884,429.516C378.065,418.312 376.155,405.92 376.155,392.34L446.433,392.34C446.772,403.544 448.725,413.135 452.289,421.113C455.854,429.092 460.82,435.627 467.185,440.72C473.551,445.812 481.19,449.547 490.102,451.923C499.014,454.3 508.817,455.488 519.512,455.488C529.018,455.488 537.463,454.385 544.847,452.178C552.232,449.971 558.47,446.916 563.563,443.011C568.655,439.107 572.56,434.396 575.276,428.879C577.992,423.362 579.35,417.294 579.35,410.673Z" style="fill:rgb(255,76,77);fill-rule:nonzero;stroke:white;stroke-width:7.43px;"/>
                    <g transform="matrix(-1,0,0,-1,1651.92,643.87)">
                        <path d="M892.289,410.673C892.289,404.053 891.144,397.857 888.852,392.085C886.56,386.314 882.656,380.924 877.139,375.916C871.622,370.909 864.408,366.325 855.495,362.166C846.583,358.008 835.507,354.146 822.266,350.581C806.14,346.167 790.735,340.65 776.051,334.03C761.367,327.41 748.424,319.431 737.22,310.095C726.016,300.758 717.062,289.894 710.357,277.502C703.651,265.11 700.299,250.851 700.299,234.724C700.299,219.107 703.609,204.933 710.229,192.201C716.85,179.47 726.016,168.606 737.729,159.609C749.442,150.612 763.277,143.694 779.234,138.856C795.191,134.018 812.506,131.599 831.178,131.599C850.53,131.599 868.227,134.4 884.269,140.002C900.31,145.604 914.103,153.455 925.646,163.555C937.189,173.656 946.186,185.666 952.637,199.585C959.087,213.505 962.313,228.783 962.313,245.419L892.544,245.419C892.205,237.101 890.719,229.462 888.088,222.502C885.457,215.542 881.553,209.558 876.375,204.551C871.198,199.543 864.747,195.639 857.023,192.838C849.3,190.037 840.26,188.636 829.905,188.636C820.399,188.636 811.954,189.782 804.57,192.074C797.185,194.366 790.947,197.591 785.854,201.75C780.762,205.909 776.9,210.832 774.269,216.518C771.637,222.205 770.322,228.359 770.322,234.979C770.322,241.939 772.062,248.22 775.542,253.822C779.022,259.423 784.072,264.474 790.692,268.972C797.313,273.47 805.333,277.587 814.755,281.322C824.176,285.056 834.828,288.536 846.711,291.761C863.686,296.684 879.303,302.71 893.563,309.84C907.822,316.97 920.087,325.415 930.357,335.176C940.627,344.937 948.605,356.055 954.292,368.532C959.979,381.009 962.822,394.886 962.822,410.164C962.822,426.46 959.554,440.932 953.019,453.579C946.483,466.225 937.444,476.92 925.901,485.662C914.357,494.404 900.607,501.024 884.651,505.523C868.694,510.021 851.294,512.271 832.452,512.271C820.739,512.271 809.068,511.21 797.44,509.088C785.812,506.966 774.693,503.698 764.083,499.285C753.474,494.871 743.586,489.354 734.419,482.734C725.252,476.113 717.316,468.389 710.611,459.562C703.906,450.735 698.644,440.72 694.824,429.516C691.005,418.312 689.095,405.92 689.095,392.34L759.373,392.34C759.712,403.544 761.664,413.135 765.229,421.113C768.794,429.092 773.759,435.627 780.125,440.72C786.491,445.812 794.13,449.547 803.042,451.923C811.954,454.3 821.757,455.488 832.452,455.488C841.958,455.488 850.403,454.385 857.787,452.178C865.171,449.971 871.41,446.916 876.502,443.011C881.595,439.107 885.499,434.396 888.215,428.879C890.931,423.362 892.289,417.294 892.289,410.673Z" style="fill:rgb(255,76,77);fill-rule:nonzero;stroke:white;stroke-width:7.43px;"/>
                    </g>
                    <g transform="matrix(1,0,0,-1,0,644.125)">
                        <path d="M1256.66,366.368C1256.66,390.303 1253.91,411.395 1248.39,429.643C1242.87,447.892 1234.94,463.17 1224.58,475.477C1214.23,487.784 1201.58,497.078 1186.64,503.359C1171.7,509.639 1154.9,512.78 1136.23,512.78C1117.72,512.78 1101,509.639 1086.06,503.359C1071.12,497.078 1058.43,487.784 1048,475.477C1037.56,463.17 1029.49,447.892 1023.81,429.643C1018.12,411.395 1015.28,390.303 1015.28,366.368L1015.28,277.757C1015.28,253.822 1018.08,232.73 1023.68,214.481C1029.28,196.233 1037.3,180.955 1047.74,168.648C1058.18,156.341 1070.83,147.047 1085.68,140.766C1100.53,134.485 1117.21,131.345 1135.71,131.345C1154.39,131.345 1171.19,134.485 1186.13,140.766C1201.07,147.047 1213.76,156.341 1224.2,168.648C1234.64,180.955 1242.66,196.233 1248.26,214.481C1253.86,232.73 1256.66,253.822 1256.66,277.757L1256.66,366.368ZM1086.57,335.812L1185.37,262.224C1184.86,237.271 1180.53,218.768 1172.38,206.715C1164.23,194.663 1152.01,188.636 1135.71,188.636C1119.25,188.636 1106.94,195.002 1098.79,207.734C1090.65,220.465 1086.57,240.072 1086.57,266.553L1086.57,335.812ZM1185.37,310.349L1086.57,383.683C1087.42,408.127 1091.92,426.248 1100.07,438.046C1108.21,449.844 1120.27,455.743 1136.23,455.743C1152.86,455.743 1165.21,449.292 1173.27,436.391C1181.34,423.49 1185.37,403.714 1185.37,377.062L1185.37,310.349Z" style="fill:rgb(255,76,77);fill-rule:nonzero;stroke:white;stroke-width:7.43px;"/>
                    </g>
                </g>
            </g>
        </g>
    </g>
    <defs>
        <radialGradient id="_Radial2" cx="0" cy="0" r="1" gradientUnits="userSpaceOnUse" gradientTransform="matrix(540,535.559,-540.147,535.413,540,535.267)"><stop offset="0" style="stop-color:rgb(0,177,255);stop-opacity:1"/><stop offset="0.7" style="stop-color:rgb(0,108,156);stop-opacity:0.03"/><stop offset="1" style="stop-color:rgb(0,106,153);stop-opacity:0"/></radialGradient>
        <radialGradient id="_Radial3" cx="0" cy="0" r="1" gradientUnits="userSpaceOnUse" gradientTransform="matrix(293.488,0,7.85503e-30,293.488,539.808,539.457)"><stop offset="0" style="stop-color:rgb(0,255,216);stop-opacity:1"/><stop offset="0.7" style="stop-color:rgb(0,220,186);stop-opacity:0.65"/><stop offset="1" style="stop-color:rgb(0,153,130);stop-opacity:0"/></radialGradient>
        <radialGradient id="_Radial4" cx="0" cy="0" r="1" gradientUnits="userSpaceOnUse" gradientTransform="matrix(387.252,-103.764,103.764,387.252,539.594,539.742)"><stop offset="0" style="stop-color:rgb(0,255,216);stop-opacity:1"/><stop offset="0.7" style="stop-color:rgb(0,220,186);stop-opacity:0.65"/><stop offset="1" style="stop-color:rgb(0,153,130);stop-opacity:0"/></radialGradient>
        <radialGradient id="_Radial5" cx="0" cy="0" r="1" gradientUnits="userSpaceOnUse" gradientTransform="matrix(347.2,-200.456,200.456,347.2,539.549,539.902)"><stop offset="0" style="stop-color:rgb(0,255,216);stop-opacity:1"/><stop offset="0.7" style="stop-color:rgb(0,220,186);stop-opacity:0.65"/><stop offset="1" style="stop-color:rgb(0,153,130);stop-opacity:0"/></radialGradient>
    </defs>
</svg>
